<svg width="600" height="370" viewBox="0 0 600 370" fill="none" xmlns="http://www.w3.org/2000/svg">
<path d="M306.5 240.4C312.6 242.1 317.3 245.2 320.6 249.7C324 254.2 325.7 259.7 325.7 266.2C325.7 275.2 322.45 282.25 315.95 287.35C309.55 292.45 300.7 295 289.4 295H250.7C247.8 295 245.5 294.2 243.8 292.6C242.2 291 241.4 288.75 241.4 285.85V198.4C241.4 195.5 242.2 193.25 243.8 191.65C245.5 190.05 247.8 189.25 250.7 189.25H287.9C298.9 189.25 307.5 191.7 313.7 196.6C320 201.4 323.15 208.15 323.15 216.85C323.15 222.45 321.65 227.3 318.65 231.4C315.75 235.5 311.7 238.5 306.5 240.4ZM260.3 233.8H284.75C298.05 233.8 304.7 228.85 304.7 218.95C304.7 213.95 303.05 210.25 299.75 207.85C296.45 205.45 291.45 204.25 284.75 204.25H260.3V233.8ZM287.3 280C294.3 280 299.4 278.75 302.6 276.25C305.8 273.75 307.4 269.85 307.4 264.55C307.4 259.25 305.75 255.3 302.45 252.7C299.25 250.1 294.2 248.8 287.3 248.8H260.3V280H287.3ZM351.443 295.9C348.743 295.9 346.493 295.15 344.693 293.65C342.993 292.05 342.143 289.8 342.143 286.9V197.35C342.143 194.45 342.993 192.25 344.693 190.75C346.493 189.25 348.743 188.5 351.443 188.5C354.143 188.5 356.393 189.25 358.193 190.75C359.993 192.25 360.893 194.45 360.893 197.35V286.9C360.893 289.8 359.993 292.05 358.193 293.65C356.393 295.15 354.143 295.9 351.443 295.9ZM413.679 296.2C406.179 296.2 399.579 294.65 393.879 291.55C388.279 288.45 383.929 284 380.829 278.2C377.729 272.4 376.179 265.65 376.179 257.95C376.179 250.25 377.729 243.55 380.829 237.85C383.929 232.05 388.279 227.6 393.879 224.5C399.579 221.4 406.179 219.85 413.679 219.85C421.179 219.85 427.729 221.4 433.329 224.5C439.029 227.6 443.379 232.05 446.379 237.85C449.479 243.55 451.029 250.25 451.029 257.95C451.029 265.65 449.479 272.4 446.379 278.2C443.379 284 439.029 288.45 433.329 291.55C427.729 294.65 421.179 296.2 413.679 296.2ZM413.529 281.65C419.629 281.65 424.279 279.65 427.479 275.65C430.679 271.65 432.279 265.75 432.279 257.95C432.279 250.25 430.679 244.4 427.479 240.4C424.279 236.3 419.679 234.25 413.679 234.25C407.679 234.25 403.029 236.3 399.729 240.4C396.529 244.4 394.929 250.25 394.929 257.95C394.929 265.75 396.529 271.65 399.729 275.65C402.929 279.65 407.529 281.65 413.529 281.65ZM528.608 220.15C531.408 220.15 533.658 220.95 535.358 222.55C537.058 224.15 537.908 226.3 537.908 229V288.25C537.908 299.75 534.708 308.45 528.308 314.35C521.908 320.25 512.458 323.2 499.958 323.2C489.058 323.2 479.958 321.15 472.658 317.05C468.958 314.85 467.108 312.2 467.108 309.1C467.108 306.9 467.608 305.15 468.608 303.85C469.708 302.55 471.108 301.9 472.808 301.9C473.708 301.9 474.808 302.1 476.108 302.5C477.408 303 478.758 303.55 480.158 304.15C483.758 305.65 486.958 306.8 489.758 307.6C492.658 308.4 495.958 308.8 499.658 308.8C512.758 308.8 519.308 302.4 519.308 289.6V280C517.108 284.1 513.908 287.3 509.708 289.6C505.508 291.8 500.708 292.9 495.308 292.9C488.908 292.9 483.208 291.4 478.208 288.4C473.308 285.3 469.458 281 466.658 275.5C463.858 270 462.458 263.65 462.458 256.45C462.458 249.25 463.808 242.9 466.508 237.4C469.308 231.8 473.208 227.5 478.208 224.5C483.208 221.4 488.908 219.85 495.308 219.85C500.708 219.85 505.508 221 509.708 223.3C513.908 225.5 517.108 228.65 519.308 232.75V228.85C519.308 226.25 520.158 224.15 521.858 222.55C523.558 220.95 525.808 220.15 528.608 220.15ZM500.258 278.35C506.258 278.35 510.908 276.4 514.208 272.5C517.608 268.6 519.308 263.25 519.308 256.45C519.308 249.55 517.608 244.15 514.208 240.25C510.908 236.35 506.258 234.4 500.258 234.4C494.358 234.4 489.708 236.35 486.308 240.25C482.908 244.15 481.208 249.55 481.208 256.45C481.208 263.25 482.908 268.6 486.308 272.5C489.708 276.4 494.358 278.35 500.258 278.35Z" fill="#2C70FF"/>
<path d="M71 167.9C68.1 167.9 65.75 167 63.95 165.2C62.25 163.4 61.4 161.05 61.4 158.15V70.4C61.4 67.5 62.2 65.25 63.8 63.65C65.5 62.05 67.8 61.25 70.7 61.25H123.35C129.45 61.25 132.5 63.85 132.5 69.05C132.5 74.15 129.45 76.7 123.35 76.7H80.45V105.5H120.35C126.45 105.5 129.5 108.1 129.5 113.3C129.5 118.4 126.45 120.95 120.35 120.95H80.45V158.15C80.45 161.05 79.6 163.4 77.9 165.2C76.2 167 73.9 167.9 71 167.9ZM160.017 167.9C157.317 167.9 155.067 167.15 153.267 165.65C151.567 164.05 150.717 161.8 150.717 158.9V69.35C150.717 66.45 151.567 64.25 153.267 62.75C155.067 61.25 157.317 60.5 160.017 60.5C162.717 60.5 164.967 61.25 166.767 62.75C168.567 64.25 169.467 66.45 169.467 69.35V158.9C169.467 161.8 168.567 164.05 166.767 165.65C164.967 167.15 162.717 167.9 160.017 167.9ZM246.853 146.9C248.553 146.9 249.903 147.55 250.903 148.85C252.003 150.15 252.553 151.9 252.553 154.1C252.553 157.2 250.703 159.8 247.003 161.9C243.603 163.8 239.753 165.35 235.453 166.55C231.153 167.65 227.053 168.2 223.153 168.2C211.353 168.2 202.003 164.8 195.103 158C188.203 151.2 184.753 141.9 184.753 130.1C184.753 122.6 186.253 115.95 189.253 110.15C192.253 104.35 196.453 99.85 201.853 96.65C207.353 93.45 213.553 91.85 220.453 91.85C227.053 91.85 232.803 93.3 237.703 96.2C242.603 99.1 246.403 103.2 249.103 108.5C251.803 113.8 253.153 120.05 253.153 127.25C253.153 131.55 251.253 133.7 247.453 133.7H203.203C203.803 140.6 205.753 145.7 209.053 149C212.353 152.2 217.153 153.8 223.453 153.8C226.653 153.8 229.453 153.4 231.853 152.6C234.353 151.8 237.153 150.7 240.253 149.3C243.253 147.7 245.453 146.9 246.853 146.9ZM220.903 105.05C215.803 105.05 211.703 106.65 208.603 109.85C205.603 113.05 203.803 117.65 203.203 123.65H237.103C236.903 117.55 235.403 112.95 232.603 109.85C229.803 106.65 225.903 105.05 220.903 105.05ZM330.625 153.2C332.425 155 333.325 157.05 333.325 159.35C333.325 161.55 332.475 163.55 330.775 165.35C329.075 167.05 327.075 167.9 324.775 167.9C322.275 167.9 320.125 166.85 318.325 164.75L297.175 141.35L276.025 164.75C274.125 166.75 271.975 167.75 269.575 167.75C267.375 167.75 265.425 166.9 263.725 165.2C262.025 163.5 261.175 161.55 261.175 159.35C261.175 157.05 262.075 155 263.875 153.2L285.775 129.35L265.075 106.85C263.275 105.05 262.375 103 262.375 100.7C262.375 98.4 263.225 96.45 264.925 94.85C266.625 93.15 268.575 92.3 270.775 92.3C273.175 92.3 275.325 93.3 277.225 95.3L297.175 117.2L317.125 95.3C319.025 93.3 321.175 92.3 323.575 92.3C325.875 92.3 327.825 93.15 329.425 94.85C331.125 96.45 331.975 98.4 331.975 100.7C331.975 103 331.075 105.05 329.275 106.85L308.575 129.35L330.625 153.2Z" fill="#2C70FF"/>
<mask id="path-3-inside-1" fill="white">
<rect width="600" height="369.13" rx="10"/>
</mask>
<rect width="600" height="369.13" rx="10" stroke="#2C70FF" stroke-width="40" mask="url(#path-3-inside-1)"/>
</svg>
