<svg width="920" height="566" viewBox="0 0 920 566" fill="none" xmlns="http://www.w3.org/2000/svg">
<path d="M874 45.6274V520.173H46V45.6274H874ZM920 0H0V565.8H920V0Z" fill="#2C70FF"/>
<path d="M140 247.2C136.133 247.2 133 246 130.6 243.6C128.333 241.2 127.2 238.067 127.2 234.2V117.2C127.2 113.333 128.267 110.333 130.4 108.2C132.667 106.067 135.733 105 139.6 105H209.8C217.933 105 222 108.467 222 115.4C222 122.2 217.933 125.6 209.8 125.6H152.6V164H205.8C213.933 164 218 167.467 218 174.4C218 181.2 213.933 184.6 205.8 184.6H152.6V234.2C152.6 238.067 151.467 241.2 149.2 243.6C146.933 246 143.867 247.2 140 247.2ZM258.689 247.2C255.089 247.2 252.089 246.2 249.689 244.2C247.422 242.067 246.289 239.067 246.289 235.2V115.8C246.289 111.933 247.422 109 249.689 107C252.089 105 255.089 104 258.689 104C262.289 104 265.289 105 267.689 107C270.089 109 271.289 111.933 271.289 115.8V235.2C271.289 239.067 270.089 242.067 267.689 244.2C265.289 246.2 262.289 247.2 258.689 247.2ZM374.47 219.2C376.737 219.2 378.537 220.067 379.87 221.8C381.337 223.533 382.07 225.867 382.07 228.8C382.07 232.933 379.604 236.4 374.67 239.2C370.137 241.733 365.004 243.8 359.27 245.4C353.537 246.867 348.07 247.6 342.87 247.6C327.137 247.6 314.67 243.067 305.47 234C296.27 224.933 291.67 212.533 291.67 196.8C291.67 186.8 293.67 177.933 297.67 170.2C301.67 162.467 307.27 156.467 314.47 152.2C321.804 147.933 330.07 145.8 339.27 145.8C348.07 145.8 355.737 147.733 362.27 151.6C368.804 155.467 373.87 160.933 377.47 168C381.07 175.067 382.87 183.4 382.87 193C382.87 198.733 380.337 201.6 375.27 201.6H316.27C317.07 210.8 319.67 217.6 324.07 222C328.47 226.267 334.87 228.4 343.27 228.4C347.537 228.4 351.27 227.867 354.47 226.8C357.804 225.733 361.537 224.267 365.67 222.4C369.67 220.267 372.604 219.2 374.47 219.2ZM339.87 163.4C333.07 163.4 327.604 165.533 323.47 169.8C319.47 174.067 317.07 180.2 316.27 188.2H361.47C361.204 180.067 359.204 173.933 355.47 169.8C351.737 165.533 346.537 163.4 339.87 163.4ZM486.167 227.6C488.567 230 489.767 232.733 489.767 235.8C489.767 238.733 488.634 241.4 486.367 243.8C484.101 246.067 481.434 247.2 478.367 247.2C475.034 247.2 472.167 245.8 469.767 243L441.567 211.8L413.367 243C410.834 245.667 407.967 247 404.767 247C401.834 247 399.234 245.867 396.967 243.6C394.701 241.333 393.567 238.733 393.567 235.8C393.567 232.733 394.767 230 397.167 227.6L426.367 195.8L398.767 165.8C396.367 163.4 395.167 160.667 395.167 157.6C395.167 154.533 396.301 151.933 398.567 149.8C400.834 147.533 403.434 146.4 406.367 146.4C409.567 146.4 412.434 147.733 414.967 150.4L441.567 179.6L468.167 150.4C470.701 147.733 473.567 146.4 476.767 146.4C479.834 146.4 482.434 147.533 484.567 149.8C486.834 151.933 487.967 154.533 487.967 157.6C487.967 160.667 486.767 163.4 484.367 165.8L456.767 195.8L486.167 227.6Z" fill="#2C70FF"/>
<path d="M458 354.2C466.133 356.467 472.4 360.6 476.8 366.6C481.333 372.6 483.6 379.933 483.6 388.6C483.6 400.6 479.267 410 470.6 416.8C462.067 423.6 450.267 427 435.2 427H383.6C379.733 427 376.667 425.933 374.4 423.8C372.267 421.667 371.2 418.667 371.2 414.8V298.2C371.2 294.333 372.267 291.333 374.4 289.2C376.667 287.067 379.733 286 383.6 286H433.2C447.867 286 459.333 289.267 467.6 295.8C476 302.2 480.2 311.2 480.2 322.8C480.2 330.267 478.2 336.733 474.2 342.2C470.333 347.667 464.933 351.667 458 354.2ZM396.4 345.4H429C446.733 345.4 455.6 338.8 455.6 325.6C455.6 318.933 453.4 314 449 310.8C444.6 307.6 437.933 306 429 306H396.4V345.4ZM432.4 407C441.733 407 448.533 405.333 452.8 402C457.067 398.667 459.2 393.467 459.2 386.4C459.2 379.333 457 374.067 452.6 370.6C448.333 367.133 441.6 365.4 432.4 365.4H396.4V407H432.4ZM517.923 428.2C514.323 428.2 511.323 427.2 508.923 425.2C506.657 423.067 505.523 420.067 505.523 416.2V296.8C505.523 292.933 506.657 290 508.923 288C511.323 286 514.323 285 517.923 285C521.523 285 524.523 286 526.923 288C529.323 290 530.523 292.933 530.523 296.8V416.2C530.523 420.067 529.323 423.067 526.923 425.2C524.523 427.2 521.523 428.2 517.923 428.2ZM600.905 428.6C590.905 428.6 582.105 426.533 574.505 422.4C567.038 418.267 561.238 412.333 557.105 404.6C552.971 396.867 550.905 387.867 550.905 377.6C550.905 367.333 552.971 358.4 557.105 350.8C561.238 343.067 567.038 337.133 574.505 333C582.105 328.867 590.905 326.8 600.905 326.8C610.905 326.8 619.638 328.867 627.105 333C634.705 337.133 640.505 343.067 644.505 350.8C648.638 358.4 650.705 367.333 650.705 377.6C650.705 387.867 648.638 396.867 644.505 404.6C640.505 412.333 634.705 418.267 627.105 422.4C619.638 426.533 610.905 428.6 600.905 428.6ZM600.705 409.2C608.838 409.2 615.038 406.533 619.305 401.2C623.571 395.867 625.705 388 625.705 377.6C625.705 367.333 623.571 359.533 619.305 354.2C615.038 348.733 608.905 346 600.905 346C592.905 346 586.705 348.733 582.305 354.2C578.038 359.533 575.905 367.333 575.905 377.6C575.905 388 578.038 395.867 582.305 401.2C586.571 406.533 592.705 409.2 600.705 409.2ZM754.144 327.2C757.877 327.2 760.877 328.267 763.144 330.4C765.41 332.533 766.544 335.4 766.544 339V418C766.544 433.333 762.277 444.933 753.744 452.8C745.21 460.667 732.61 464.6 715.944 464.6C701.41 464.6 689.277 461.867 679.544 456.4C674.61 453.467 672.144 449.933 672.144 445.8C672.144 442.867 672.81 440.533 674.144 438.8C675.61 437.067 677.477 436.2 679.744 436.2C680.944 436.2 682.41 436.467 684.144 437C685.877 437.667 687.677 438.4 689.544 439.2C694.344 441.2 698.61 442.733 702.344 443.8C706.21 444.867 710.61 445.4 715.544 445.4C733.01 445.4 741.744 436.867 741.744 419.8V407C738.81 412.467 734.544 416.733 728.944 419.8C723.344 422.733 716.944 424.2 709.744 424.2C701.21 424.2 693.61 422.2 686.944 418.2C680.41 414.067 675.277 408.333 671.544 401C667.81 393.667 665.944 385.2 665.944 375.6C665.944 366 667.744 357.533 671.344 350.2C675.077 342.733 680.277 337 686.944 333C693.61 328.867 701.21 326.8 709.744 326.8C716.944 326.8 723.344 328.333 728.944 331.4C734.544 334.333 738.81 338.533 741.744 344V338.8C741.744 335.333 742.877 332.533 745.144 330.4C747.41 328.267 750.41 327.2 754.144 327.2ZM716.344 404.8C724.344 404.8 730.544 402.2 734.944 397C739.477 391.8 741.744 384.667 741.744 375.6C741.744 366.4 739.477 359.2 734.944 354C730.544 348.8 724.344 346.2 716.344 346.2C708.477 346.2 702.277 348.8 697.744 354C693.21 359.2 690.944 366.4 690.944 375.6C690.944 384.667 693.21 391.8 697.744 397C702.277 402.2 708.477 404.8 716.344 404.8Z" fill="#2C70FF"/>
</svg>
