<svg width="1440" height="820" viewBox="0 0 1440 820" fill="none" xmlns="http://www.w3.org/2000/svg">
<mask id="path-1-inside-1" fill="white">
<rect width="1440" height="820" rx="10"/>
</mask>
<rect width="1440" height="820" rx="10" stroke="#2C70FF" stroke-width="120" mask="url(#path-1-inside-1)"/>
<path d="M728.5 527.6C742.733 531.567 753.7 538.8 761.4 549.3C769.333 559.8 773.3 572.633 773.3 587.8C773.3 608.8 765.717 625.25 750.55 637.15C735.617 649.05 714.967 655 688.6 655H598.3C591.533 655 586.167 653.133 582.2 649.4C578.467 645.667 576.6 640.417 576.6 633.65V429.6C576.6 422.833 578.467 417.583 582.2 413.85C586.167 410.117 591.533 408.25 598.3 408.25H685.1C710.767 408.25 730.833 413.967 745.3 425.4C760 436.6 767.35 452.35 767.35 472.65C767.35 485.717 763.85 497.033 756.85 506.6C750.083 516.167 740.633 523.167 728.5 527.6ZM620.7 512.2H677.75C708.783 512.2 724.3 500.65 724.3 477.55C724.3 465.883 720.45 457.25 712.75 451.65C705.05 446.05 693.383 443.25 677.75 443.25H620.7V512.2ZM683.7 620C700.033 620 711.933 617.083 719.4 611.25C726.867 605.417 730.6 596.317 730.6 583.95C730.6 571.583 726.75 562.367 719.05 556.3C711.583 550.233 699.8 547.2 683.7 547.2H620.7V620H683.7ZM833.366 657.1C827.066 657.1 821.816 655.35 817.616 651.85C813.649 648.117 811.666 642.867 811.666 636.1V427.15C811.666 420.383 813.649 415.25 817.616 411.75C821.816 408.25 827.066 406.5 833.366 406.5C839.666 406.5 844.916 408.25 849.116 411.75C853.316 415.25 855.416 420.383 855.416 427.15V636.1C855.416 642.867 853.316 648.117 849.116 651.85C844.916 655.35 839.666 657.1 833.366 657.1ZM978.583 657.8C961.083 657.8 945.683 654.183 932.383 646.95C919.317 639.717 909.167 629.333 901.933 615.8C894.7 602.267 891.083 586.517 891.083 568.55C891.083 550.583 894.7 534.95 901.933 521.65C909.167 508.117 919.317 497.733 932.383 490.5C945.683 483.267 961.083 479.65 978.583 479.65C996.083 479.65 1011.37 483.267 1024.43 490.5C1037.73 497.733 1047.88 508.117 1054.88 521.65C1062.12 534.95 1065.73 550.583 1065.73 568.55C1065.73 586.517 1062.12 602.267 1054.88 615.8C1047.88 629.333 1037.73 639.717 1024.43 646.95C1011.37 654.183 996.083 657.8 978.583 657.8ZM978.233 623.85C992.467 623.85 1003.32 619.183 1010.78 609.85C1018.25 600.517 1021.98 586.75 1021.98 568.55C1021.98 550.583 1018.25 536.933 1010.78 527.6C1003.32 518.033 992.583 513.25 978.583 513.25C964.583 513.25 953.733 518.033 946.033 527.6C938.567 536.933 934.833 550.583 934.833 568.55C934.833 586.75 938.567 600.517 946.033 609.85C953.5 619.183 964.233 623.85 978.233 623.85ZM1246.75 480.35C1253.28 480.35 1258.53 482.217 1262.5 485.95C1266.47 489.683 1268.45 494.7 1268.45 501V639.25C1268.45 666.083 1260.98 686.383 1246.05 700.15C1231.12 713.917 1209.07 720.8 1179.9 720.8C1154.47 720.8 1133.23 716.017 1116.2 706.45C1107.57 701.317 1103.25 695.133 1103.25 687.9C1103.25 682.767 1104.42 678.683 1106.75 675.65C1109.32 672.617 1112.58 671.1 1116.55 671.1C1118.65 671.1 1121.22 671.567 1124.25 672.5C1127.28 673.667 1130.43 674.95 1133.7 676.35C1142.1 679.85 1149.57 682.533 1156.1 684.4C1162.87 686.267 1170.57 687.2 1179.2 687.2C1209.77 687.2 1225.05 672.267 1225.05 642.4V620C1219.92 629.567 1212.45 637.033 1202.65 642.4C1192.85 647.533 1181.65 650.1 1169.05 650.1C1154.12 650.1 1140.82 646.6 1129.15 639.6C1117.72 632.367 1108.73 622.333 1102.2 609.5C1095.67 596.667 1092.4 581.85 1092.4 565.05C1092.4 548.25 1095.55 533.433 1101.85 520.6C1108.38 507.533 1117.48 497.5 1129.15 490.5C1140.82 483.267 1154.12 479.65 1169.05 479.65C1181.65 479.65 1192.85 482.333 1202.65 487.7C1212.45 492.833 1219.92 500.183 1225.05 509.75V500.65C1225.05 494.583 1227.03 489.683 1231 485.95C1234.97 482.217 1240.22 480.35 1246.75 480.35ZM1180.6 616.15C1194.6 616.15 1205.45 611.6 1213.15 602.5C1221.08 593.4 1225.05 580.917 1225.05 565.05C1225.05 548.95 1221.08 536.35 1213.15 527.25C1205.45 518.15 1194.6 513.6 1180.6 513.6C1166.83 513.6 1155.98 518.15 1148.05 527.25C1140.12 536.35 1136.15 548.95 1136.15 565.05C1136.15 580.917 1140.12 593.4 1148.05 602.5C1155.98 611.6 1166.83 616.15 1180.6 616.15Z" fill="#2C70FF"/>
<path d="M177 366.1C170.233 366.1 164.75 364 160.55 359.8C156.583 355.6 154.6 350.117 154.6 343.35V138.6C154.6 131.833 156.467 126.583 160.2 122.85C164.167 119.117 169.533 117.25 176.3 117.25H299.15C313.383 117.25 320.5 123.317 320.5 135.45C320.5 147.35 313.383 153.3 299.15 153.3H199.05V220.5H292.15C306.383 220.5 313.5 226.567 313.5 238.7C313.5 250.6 306.383 256.55 292.15 256.55H199.05V343.35C199.05 350.117 197.067 355.6 193.1 359.8C189.133 364 183.767 366.1 177 366.1ZM384.706 366.1C378.406 366.1 373.156 364.35 368.956 360.85C364.989 357.117 363.006 351.867 363.006 345.1V136.15C363.006 129.383 364.989 124.25 368.956 120.75C373.156 117.25 378.406 115.5 384.706 115.5C391.006 115.5 396.256 117.25 400.456 120.75C404.656 124.25 406.756 129.383 406.756 136.15V345.1C406.756 351.867 404.656 357.117 400.456 360.85C396.256 364.35 391.006 366.1 384.706 366.1ZM587.323 317.1C591.29 317.1 594.44 318.617 596.773 321.65C599.34 324.683 600.623 328.767 600.623 333.9C600.623 341.133 596.306 347.2 587.673 352.1C579.74 356.533 570.756 360.15 560.723 362.95C550.69 365.517 541.123 366.8 532.023 366.8C504.49 366.8 482.673 358.867 466.573 343C450.473 327.133 442.423 305.433 442.423 277.9C442.423 260.4 445.923 244.883 452.923 231.35C459.923 217.817 469.723 207.317 482.323 199.85C495.156 192.383 509.623 188.65 525.723 188.65C541.123 188.65 554.54 192.033 565.973 198.8C577.406 205.567 586.273 215.133 592.573 227.5C598.873 239.867 602.023 254.45 602.023 271.25C602.023 281.283 597.59 286.3 588.723 286.3H485.473C486.873 302.4 491.423 314.3 499.123 322C506.823 329.467 518.023 333.2 532.723 333.2C540.19 333.2 546.723 332.267 552.323 330.4C558.156 328.533 564.69 325.967 571.923 322.7C578.923 318.967 584.056 317.1 587.323 317.1ZM526.773 219.45C514.873 219.45 505.306 223.183 498.073 230.65C491.073 238.117 486.873 248.85 485.473 262.85H564.573C564.106 248.617 560.606 237.883 554.073 230.65C547.54 223.183 538.44 219.45 526.773 219.45ZM782.793 331.8C786.993 336 789.093 340.783 789.093 346.15C789.093 351.283 787.109 355.95 783.143 360.15C779.176 364.117 774.509 366.1 769.143 366.1C763.309 366.1 758.293 363.65 754.093 358.75L704.743 304.15L655.393 358.75C650.959 363.417 645.943 365.75 640.343 365.75C635.209 365.75 630.659 363.767 626.693 359.8C622.726 355.833 620.743 351.283 620.743 346.15C620.743 340.783 622.843 336 627.043 331.8L678.143 276.15L629.843 223.65C625.643 219.45 623.543 214.667 623.543 209.3C623.543 203.933 625.526 199.383 629.493 195.65C633.459 191.683 638.009 189.7 643.143 189.7C648.743 189.7 653.759 192.033 658.193 196.7L704.743 247.8L751.293 196.7C755.726 192.033 760.743 189.7 766.343 189.7C771.709 189.7 776.259 191.683 779.993 195.65C783.959 199.383 785.943 203.933 785.943 209.3C785.943 214.667 783.843 219.45 779.643 223.65L731.343 276.15L782.793 331.8Z" fill="#2C70FF"/>
</svg>
